<svg xmlns="http://www.w3.org/2000/svg" xmlns:xlink="http://www.w3.org/1999/xlink" version="1.1" id="Layer_1" x="0px" y="0px" width="100px" height="100px" viewBox="0 0 100 100" enable-background="new 0 0 100 100" xml:space="preserve">
<g>
	<path d="M68.24,7.008l-7.361,3.024c-2.455,1.626-2.145,3.989-2.145,5.169V55.75l5.455,6.092L63.273,90.5   c0,1.185,0.961,2.145,2.143,2.145h2.824c1.182,0,2.139-0.96,2.139-2.145V9.15C70.379,7.968,69.422,7.008,68.24,7.008z"/>
	<path d="M46.984,8.455l-0.502-0.002l-0.068,23.726l-1.298-0.002L45.188,8.45l-2.997-0.01l-0.069,23.727l-1.294-0.002L40.9,8.438   l-2.995-0.012l-0.071,23.729l-1.294-0.005l0.07-23.727l-2.994-0.007l-0.071,23.727l-1.294-0.005l0.07-23.727l-0.465-0.002   c-1.183-0.005-2.146,0.953-2.149,2.138l-0.087,28.068c-0.002,1.18,0.955,2.145,2.139,2.15l4.759,0.012l-0.151,50.062   c-0.003,1.18,0.954,2.145,2.138,2.145l2.183,0.01c1.183,0.005,2.145-0.955,2.149-2.135l0.149-50.062l3.896,0.012   c1.185,0.005,2.149-0.953,2.152-2.135l0.085-28.07C49.124,9.419,48.167,8.458,46.984,8.455z"/>
</g>
</svg>